<mxfile host="Electron" modified="2023-11-02T00:41:14.233Z" agent="Mozilla/5.0 (Windows NT 10.0; Win64; x64) AppleWebKit/537.36 (KHTML, like Gecko) draw.io/21.5.1 Chrome/112.0.5615.204 Electron/24.6.0 Safari/537.36" etag="8TCZ1egKGw4B77E0bJXP" version="21.5.1" type="device" pages="2">
  <diagram name="CrudProject" id="ZGgHjCcB7qssjXa5atpv">
    <mxGraphModel dx="1218" dy="1191" grid="1" gridSize="10" guides="1" tooltips="1" connect="1" arrows="1" fold="1" page="1" pageScale="1" pageWidth="827" pageHeight="1169" math="0" shadow="0">
      <root>
        <mxCell id="0" />
        <mxCell id="1" parent="0" />
        <mxCell id="XrpCOL2OjUovgCXjI-44-5" style="edgeStyle=orthogonalEdgeStyle;rounded=0;orthogonalLoop=1;jettySize=auto;html=1;" edge="1" parent="1" source="XrpCOL2OjUovgCXjI-44-3" target="XrpCOL2OjUovgCXjI-44-4">
          <mxGeometry relative="1" as="geometry" />
        </mxCell>
        <mxCell id="XrpCOL2OjUovgCXjI-44-3" value="AWS Cloud" style="sketch=0;outlineConnect=0;gradientColor=none;html=1;whiteSpace=wrap;fontSize=12;fontStyle=0;shape=mxgraph.aws4.group;grIcon=mxgraph.aws4.group_aws_cloud;strokeColor=#AAB7B8;fillColor=none;verticalAlign=top;align=left;spacingLeft=30;fontColor=#AAB7B8;dashed=0;" vertex="1" parent="1">
          <mxGeometry x="350" y="234" width="840" height="470" as="geometry" />
        </mxCell>
        <mxCell id="rlfFLs4MfkNSwEPB8cB_-12" style="edgeStyle=orthogonalEdgeStyle;rounded=0;orthogonalLoop=1;jettySize=auto;html=1;" edge="1" parent="1" source="rlfFLs4MfkNSwEPB8cB_-1" target="rlfFLs4MfkNSwEPB8cB_-8">
          <mxGeometry relative="1" as="geometry" />
        </mxCell>
        <mxCell id="rlfFLs4MfkNSwEPB8cB_-1" value="Frontend" style="image;aspect=fixed;html=1;points=[];align=center;fontSize=12;image=img/lib/azure2/general/Browser.svg;" vertex="1" parent="1">
          <mxGeometry x="230" y="443" width="65" height="52" as="geometry" />
        </mxCell>
        <mxCell id="rlfFLs4MfkNSwEPB8cB_-11" style="edgeStyle=orthogonalEdgeStyle;rounded=0;orthogonalLoop=1;jettySize=auto;html=1;entryX=0;entryY=0.5;entryDx=0;entryDy=0;entryPerimeter=0;" edge="1" parent="1" source="rlfFLs4MfkNSwEPB8cB_-3" target="rlfFLs4MfkNSwEPB8cB_-1">
          <mxGeometry relative="1" as="geometry" />
        </mxCell>
        <mxCell id="rlfFLs4MfkNSwEPB8cB_-3" value="User" style="sketch=0;outlineConnect=0;fontColor=#232F3E;gradientColor=none;fillColor=#232F3D;strokeColor=none;dashed=0;verticalLabelPosition=bottom;verticalAlign=top;align=center;html=1;fontSize=12;fontStyle=0;aspect=fixed;pointerEvents=1;shape=mxgraph.aws4.user;" vertex="1" parent="1">
          <mxGeometry x="50" y="430" width="78" height="78" as="geometry" />
        </mxCell>
        <mxCell id="rlfFLs4MfkNSwEPB8cB_-14" value="/post" style="edgeStyle=orthogonalEdgeStyle;rounded=0;orthogonalLoop=1;jettySize=auto;html=1;entryX=0;entryY=0.5;entryDx=0;entryDy=0;entryPerimeter=0;" edge="1" parent="1" source="rlfFLs4MfkNSwEPB8cB_-5" target="rlfFLs4MfkNSwEPB8cB_-6">
          <mxGeometry relative="1" as="geometry" />
        </mxCell>
        <mxCell id="rlfFLs4MfkNSwEPB8cB_-18" value="/get" style="edgeStyle=orthogonalEdgeStyle;rounded=0;orthogonalLoop=1;jettySize=auto;html=1;" edge="1" parent="1" source="rlfFLs4MfkNSwEPB8cB_-17" target="rlfFLs4MfkNSwEPB8cB_-5">
          <mxGeometry relative="1" as="geometry" />
        </mxCell>
        <mxCell id="rlfFLs4MfkNSwEPB8cB_-5" value="API Gateway" style="sketch=0;points=[[0,0,0],[0.25,0,0],[0.5,0,0],[0.75,0,0],[1,0,0],[0,1,0],[0.25,1,0],[0.5,1,0],[0.75,1,0],[1,1,0],[0,0.25,0],[0,0.5,0],[0,0.75,0],[1,0.25,0],[1,0.5,0],[1,0.75,0]];outlineConnect=0;fontColor=#232F3E;gradientColor=#945DF2;gradientDirection=north;fillColor=#5A30B5;strokeColor=#ffffff;dashed=0;verticalLabelPosition=bottom;verticalAlign=top;align=center;html=1;fontSize=12;fontStyle=0;aspect=fixed;shape=mxgraph.aws4.resourceIcon;resIcon=mxgraph.aws4.api_gateway;" vertex="1" parent="1">
          <mxGeometry x="580" y="430" width="78" height="78" as="geometry" />
        </mxCell>
        <mxCell id="rlfFLs4MfkNSwEPB8cB_-15" value="PutItem()" style="edgeStyle=orthogonalEdgeStyle;rounded=0;orthogonalLoop=1;jettySize=auto;html=1;" edge="1" parent="1" source="rlfFLs4MfkNSwEPB8cB_-6" target="rlfFLs4MfkNSwEPB8cB_-9">
          <mxGeometry relative="1" as="geometry" />
        </mxCell>
        <mxCell id="rlfFLs4MfkNSwEPB8cB_-16" value="PutItem()" style="edgeStyle=orthogonalEdgeStyle;rounded=0;orthogonalLoop=1;jettySize=auto;html=1;" edge="1" parent="1" source="rlfFLs4MfkNSwEPB8cB_-6" target="rlfFLs4MfkNSwEPB8cB_-7">
          <mxGeometry relative="1" as="geometry" />
        </mxCell>
        <mxCell id="rlfFLs4MfkNSwEPB8cB_-6" value="AWS Lambda (C&lt;b&gt;&lt;font color=&quot;#ff0000&quot;&gt;R&lt;/font&gt;&lt;/b&gt;UD)&lt;br&gt;&lt;b&gt;InsertProducts.Lambda&lt;/b&gt;" style="sketch=0;points=[[0,0,0],[0.25,0,0],[0.5,0,0],[0.75,0,0],[1,0,0],[0,1,0],[0.25,1,0],[0.5,1,0],[0.75,1,0],[1,1,0],[0,0.25,0],[0,0.5,0],[0,0.75,0],[1,0.25,0],[1,0.5,0],[1,0.75,0]];outlineConnect=0;fontColor=#232F3E;gradientColor=#F78E04;gradientDirection=north;fillColor=#D05C17;strokeColor=#ffffff;dashed=0;verticalLabelPosition=middle;verticalAlign=middle;align=left;html=1;fontSize=12;fontStyle=0;aspect=fixed;shape=mxgraph.aws4.resourceIcon;resIcon=mxgraph.aws4.lambda;labelPosition=right;spacingLeft=5;" vertex="1" parent="1">
          <mxGeometry x="940" y="430" width="78" height="78" as="geometry" />
        </mxCell>
        <mxCell id="rlfFLs4MfkNSwEPB8cB_-7" value="Bucket S3 (Photo of Books)" style="sketch=0;outlineConnect=0;fontColor=#232F3E;gradientColor=none;fillColor=#3F8624;strokeColor=none;dashed=0;verticalLabelPosition=bottom;verticalAlign=top;align=center;html=1;fontSize=12;fontStyle=0;aspect=fixed;pointerEvents=1;shape=mxgraph.aws4.bucket_with_objects;" vertex="1" parent="1">
          <mxGeometry x="941.5" y="590" width="75" height="78" as="geometry" />
        </mxCell>
        <mxCell id="rlfFLs4MfkNSwEPB8cB_-13" value="" style="edgeStyle=orthogonalEdgeStyle;rounded=0;orthogonalLoop=1;jettySize=auto;html=1;entryX=0;entryY=0.5;entryDx=0;entryDy=0;entryPerimeter=0;" edge="1" parent="1" source="rlfFLs4MfkNSwEPB8cB_-8" target="rlfFLs4MfkNSwEPB8cB_-5">
          <mxGeometry relative="1" as="geometry" />
        </mxCell>
        <mxCell id="rlfFLs4MfkNSwEPB8cB_-8" value="Bucket S3 (Frontend)" style="sketch=0;outlineConnect=0;fontColor=#232F3E;gradientColor=none;fillColor=#3F8624;strokeColor=none;dashed=0;verticalLabelPosition=bottom;verticalAlign=top;align=center;html=1;fontSize=12;fontStyle=0;aspect=fixed;pointerEvents=1;shape=mxgraph.aws4.bucket_with_objects;" vertex="1" parent="1">
          <mxGeometry x="400" y="430" width="75" height="78" as="geometry" />
        </mxCell>
        <mxCell id="rlfFLs4MfkNSwEPB8cB_-9" value="DynamoDB (Data of Books)" style="sketch=0;points=[[0,0,0],[0.25,0,0],[0.5,0,0],[0.75,0,0],[1,0,0],[0,1,0],[0.25,1,0],[0.5,1,0],[0.75,1,0],[1,1,0],[0,0.25,0],[0,0.5,0],[0,0.75,0],[1,0.25,0],[1,0.5,0],[1,0.75,0]];outlineConnect=0;fontColor=#232F3E;gradientColor=#4D72F3;gradientDirection=north;fillColor=#3334B9;strokeColor=#ffffff;dashed=0;verticalLabelPosition=top;verticalAlign=bottom;align=center;html=1;fontSize=12;fontStyle=0;aspect=fixed;shape=mxgraph.aws4.resourceIcon;resIcon=mxgraph.aws4.dynamodb;labelPosition=center;" vertex="1" parent="1">
          <mxGeometry x="940" y="270" width="78" height="78" as="geometry" />
        </mxCell>
        <mxCell id="rlfFLs4MfkNSwEPB8cB_-20" value="/get" style="edgeStyle=orthogonalEdgeStyle;rounded=0;orthogonalLoop=1;jettySize=auto;html=1;exitX=0;exitY=0.5;exitDx=0;exitDy=0;exitPerimeter=0;" edge="1" parent="1" source="rlfFLs4MfkNSwEPB8cB_-19" target="rlfFLs4MfkNSwEPB8cB_-17">
          <mxGeometry relative="1" as="geometry" />
        </mxCell>
        <mxCell id="rlfFLs4MfkNSwEPB8cB_-17" value="ALB" style="sketch=0;outlineConnect=0;fontColor=#232F3E;gradientColor=none;fillColor=#4D27AA;strokeColor=none;dashed=0;verticalLabelPosition=middle;verticalAlign=middle;align=right;html=1;fontSize=12;fontStyle=0;aspect=fixed;pointerEvents=1;shape=mxgraph.aws4.network_load_balancer;labelPosition=left;spacingRight=5;" vertex="1" parent="1">
          <mxGeometry x="580" y="270" width="78" height="78" as="geometry" />
        </mxCell>
        <mxCell id="rlfFLs4MfkNSwEPB8cB_-21" value="GeItem()" style="edgeStyle=orthogonalEdgeStyle;rounded=0;orthogonalLoop=1;jettySize=auto;html=1;exitX=0;exitY=0.5;exitDx=0;exitDy=0;exitPerimeter=0;" edge="1" parent="1" source="rlfFLs4MfkNSwEPB8cB_-9" target="rlfFLs4MfkNSwEPB8cB_-19">
          <mxGeometry relative="1" as="geometry" />
        </mxCell>
        <mxCell id="rlfFLs4MfkNSwEPB8cB_-19" value="ECS/Fargate/Services (&lt;font color=&quot;#ff0000&quot;&gt;&lt;b&gt;C&lt;/b&gt;&lt;/font&gt;&lt;font color=&quot;#000000&quot;&gt;R&lt;/font&gt;&lt;font color=&quot;#ff0000&quot;&gt;&lt;b&gt;UD&lt;/b&gt;&lt;/font&gt;)&lt;br&gt;&lt;b&gt;ListProducts.Api.EcsFargateTask&lt;/b&gt;" style="sketch=0;points=[[0,0,0],[0.25,0,0],[0.5,0,0],[0.75,0,0],[1,0,0],[0,1,0],[0.25,1,0],[0.5,1,0],[0.75,1,0],[1,1,0],[0,0.25,0],[0,0.5,0],[0,0.75,0],[1,0.25,0],[1,0.5,0],[1,0.75,0]];outlineConnect=0;fontColor=#232F3E;gradientColor=#F78E04;gradientDirection=north;fillColor=#D05C17;strokeColor=#ffffff;dashed=0;verticalLabelPosition=bottom;verticalAlign=top;align=center;html=1;fontSize=12;fontStyle=0;aspect=fixed;shape=mxgraph.aws4.resourceIcon;resIcon=mxgraph.aws4.fargate;" vertex="1" parent="1">
          <mxGeometry x="760" y="270" width="78" height="78" as="geometry" />
        </mxCell>
        <mxCell id="XrpCOL2OjUovgCXjI-44-1" value="XRay" style="sketch=0;points=[[0,0,0],[0.25,0,0],[0.5,0,0],[0.75,0,0],[1,0,0],[0,1,0],[0.25,1,0],[0.5,1,0],[0.75,1,0],[1,1,0],[0,0.25,0],[0,0.5,0],[0,0.75,0],[1,0.25,0],[1,0.5,0],[1,0.75,0]];outlineConnect=0;fontColor=#232F3E;gradientColor=#4D72F3;gradientDirection=north;fillColor=#3334B9;strokeColor=#ffffff;dashed=0;verticalLabelPosition=bottom;verticalAlign=top;align=center;html=1;fontSize=12;fontStyle=0;aspect=fixed;shape=mxgraph.aws4.resourceIcon;resIcon=mxgraph.aws4.xray;" vertex="1" parent="1">
          <mxGeometry x="1241" y="430" width="78" height="78" as="geometry" />
        </mxCell>
        <mxCell id="XrpCOL2OjUovgCXjI-44-2" value="Cloudwatch" style="sketch=0;points=[[0,0,0],[0.25,0,0],[0.5,0,0],[0.75,0,0],[1,0,0],[0,1,0],[0.25,1,0],[0.5,1,0],[0.75,1,0],[1,1,0],[0,0.25,0],[0,0.5,0],[0,0.75,0],[1,0.25,0],[1,0.5,0],[1,0.75,0]];points=[[0,0,0],[0.25,0,0],[0.5,0,0],[0.75,0,0],[1,0,0],[0,1,0],[0.25,1,0],[0.5,1,0],[0.75,1,0],[1,1,0],[0,0.25,0],[0,0.5,0],[0,0.75,0],[1,0.25,0],[1,0.5,0],[1,0.75,0]];outlineConnect=0;fontColor=#232F3E;gradientColor=#F34482;gradientDirection=north;fillColor=#BC1356;strokeColor=#ffffff;dashed=0;verticalLabelPosition=bottom;verticalAlign=top;align=center;html=1;fontSize=12;fontStyle=0;aspect=fixed;shape=mxgraph.aws4.resourceIcon;resIcon=mxgraph.aws4.cloudwatch_2;" vertex="1" parent="1">
          <mxGeometry x="1341" y="430" width="78" height="78" as="geometry" />
        </mxCell>
        <mxCell id="XrpCOL2OjUovgCXjI-44-4" value="AWS Cloud" style="sketch=0;outlineConnect=0;gradientColor=none;html=1;whiteSpace=wrap;fontSize=12;fontStyle=0;shape=mxgraph.aws4.group;grIcon=mxgraph.aws4.group_aws_cloud;strokeColor=#AAB7B8;fillColor=none;verticalAlign=top;align=left;spacingLeft=30;fontColor=#AAB7B8;dashed=0;" vertex="1" parent="1">
          <mxGeometry x="1220" y="368.5" width="220" height="201" as="geometry" />
        </mxCell>
      </root>
    </mxGraphModel>
  </diagram>
  <diagram id="tvs1i_1Wv5621jLQknJS" name="Roles&amp;BucketPolicyS3">
    <mxGraphModel dx="1218" dy="1191" grid="1" gridSize="10" guides="1" tooltips="1" connect="1" arrows="1" fold="1" page="1" pageScale="1" pageWidth="827" pageHeight="1169" math="0" shadow="0">
      <root>
        <mxCell id="0" />
        <mxCell id="1" parent="0" />
      </root>
    </mxGraphModel>
  </diagram>
</mxfile>
